<svg xmlns="http://www.w3.org/2000/svg" version="1.1" xmlns:xlink="http://www.w3.org/1999/xlink" xmlns:svgjs="http://svgjs.dev/svgjs" width="1000" height="1000" viewBox="0 0 1000 1000"><rect width="1000" height="1000" fill="#ffffff"></rect><g transform="matrix(0.7,0,0,0.7,149.57575757575756,282.12661167206477)"><svg viewBox="0 0 396 247" data-background-color="#ffffff" preserveAspectRatio="xMidYMid meet" height="623" width="1000" xmlns="http://www.w3.org/2000/svg" xmlns:xlink="http://www.w3.org/1999/xlink"><g id="tight-bounds" transform="matrix(1,0,0,1,0.2400000000000091,-0.09997000000001321)"><svg viewBox="0 0 395.52 247.2" height="247.2" width="395.52"><g><svg></svg></g><g><svg viewBox="0 0 395.52 247.2" height="247.2" width="395.52"><mask id="f9066a8f-61e6-4524-9df3-81ae4b2ee146"><rect width="395.52" height="247.2" fill="white"></rect><g transform="matrix(1,0,0,1,40.47439841175577,37.08)" id="clone"><svg viewBox="0 0 314.57120317648844 173.04" height="173.04" width="314.57120317648844"><g><svg viewBox="0 0 395.52 217.5684872260913" height="173.04" width="314.57120317648844"><g transform="matrix(1,0,0,1,0,129.29361059851735)"><svg viewBox="0 0 395.52 88.27487662757395" height="88.27487662757395" width="395.52"><g id="SvgjsG1263"><svg viewBox="0 0 395.52 88.27487662757395" height="88.27487662757395" width="395.52" id="SvgjsSvg1262"><g><svg viewBox="0 0 395.52 56.438576304241835" height="56.438576304241835" width="395.52"><g transform="matrix(1,0,0,1,0,0)"><svg width="395.52" viewBox="-1.05 -41.3 308.62 44.9" height="56.438576304241835" data-palette-color="#233565"><path d="M22.75-26.05L21.05-31.75Q18.35-32.7 15.5-32.7 12.65-32.7 10.5-31.08 8.35-29.45 8.35-26.25L8.35-26.25Q8.35-23.15 11-21.5L11-21.5Q12.45-20.6 13.38-20.2 14.3-19.8 16.07-19.15 17.85-18.5 18.5-18.23 19.15-17.95 20.43-17.38 21.7-16.8 22.33-16.35 22.95-15.9 23.85-15.1 24.75-14.3 25.2-13.5L25.2-13.5Q26.3-11.45 26.3-9.05L26.3-9.05Q26.3-4.8 22.85-2.1 19.4 0.6 13.9 0.6L13.9 0.6Q9.7 0.6 6.05-0.8L6.05-0.8Q4.25-1.45 3.1-2.6 1.95-3.75 1.95-5.25L1.95-5.25Q1.95-7.7 5.5-8.6L5.5-8.6Q6.05-5.6 7.6-3.75 9.15-1.9 10.83-1.3 12.5-0.7 14.93-0.7 17.35-0.7 19.5-2.27 21.65-3.85 21.65-7.45L21.65-7.45Q21.65-10.2 19.15-11.95L19.15-11.95Q17.15-13.3 14.23-14.5 11.3-15.7 10.3-16.13 9.3-16.55 7.73-17.48 6.15-18.4 5.4-19.3L5.4-19.3Q3.45-21.65 3.45-24.7L3.45-24.7Q3.45-29.4 6.8-31.8 10.15-34.2 16.05-34.2L16.05-34.2Q19.6-34.2 24.3-33.4L24.3-33.4 24.3-26.05 22.75-26.05ZM35.35-5.4L35.35-5.4Q35.35-2.15 38-1.55L38-1.55Q38.6-1.4 39.15-1.4L39.15-1.4Q41.05-1.4 43.1-3.03 45.15-4.65 45.25-7.4L45.25-7.4 45.25-11.7Q35.35-11.6 35.35-5.4ZM37.35 0.6L37.35 0.6Q34.5 0.6 32.47-0.98 30.45-2.55 30.45-5.4L30.45-5.4Q30.5-9.25 34.32-11.15 38.15-13.05 45.25-13.05L45.25-13.05 45.25-17.35Q45.25-23.7 40.65-23.7L40.65-23.7Q38.3-23.7 36.85-21.75L36.85-21.75Q35.85-20.4 35.85-18.4L35.85-18.4Q35.85-17.55 36.05-16.6L36.05-16.6Q35.35-16.1 34.62-16.1 33.9-16.1 33.2-16.4L33.2-16.4Q31.6-17 31.6-18.7L31.6-18.7Q31.6-21 33.25-22.5L33.25-22.5Q35.95-24.95 40.7-24.95 45.45-24.95 47.6-22.93 49.75-20.9 49.75-16.55L49.75-16.55 49.75-1.4 53.95-1.2 54-0.05 45.65 0.55 45.2-3.9Q42.9 0.6 37.35 0.6ZM63.85-19.15L64.3-19.1Q66.55-24.9 73.34-24.9L73.34-24.9Q76.75-24.9 78.84-22.88 80.95-20.85 80.95-17.1L80.95-17.1Q80.95-10.65 80.55-1.45L80.55-1.45 84-1.2 84 0 72.95 0 72.95-1.2 75.65-1.4Q76.05-12.7 76.05-14.35 76.05-16 76-16.88 75.95-17.75 75.72-19.03 75.5-20.3 75.05-21.05L75.05-21.05Q73.95-22.9 71.59-22.9L71.59-22.9Q68.4-22.9 66.34-20.25 64.3-17.6 64.3-14.5L64.3-14.5 64.3-1.45 68.05-1.2 68.05 0 56.1 0 56.1-1.2 59.4-1.45 59.4-22.6 55.15-22.8 55.15-23.95 64.09-24.55 63.85-19.15ZM100.04-24.95L100.04-24.95Q102.84-24.95 105.44-23.75L105.44-23.75Q106.89-23.1 107.77-21.75 108.64-20.4 108.64-18.6 108.64-16.8 107.04-16.15L107.04-16.15Q106.39-15.9 105.67-15.9 104.94-15.9 104.19-16.4L104.19-16.4Q104.39-17.45 104.39-18.88 104.39-20.3 103.49-21.6L103.49-21.6Q102.19-23.55 99.79-23.55L99.79-23.55Q92.84-23.55 92.84-12.1L92.84-12.1Q92.84-6.5 94.47-3.68 96.09-0.85 99.74-0.85L99.74-0.85Q104.39-0.85 107.19-5.35L107.19-5.35Q108.29-5 108.29-4.28 108.29-3.55 107.37-2.48 106.44-1.4 104.17-0.43 101.89 0.55 98.94 0.55L98.94 0.55Q93.79 0.55 90.62-2.95 87.44-6.45 87.44-12.2 87.44-17.95 90.87-21.45 94.29-24.95 100.04-24.95ZM128.64-24.75L128.64-24.75Q136.64-24.75 136.64-17.05L136.64-17.05Q136.64-11.5 136.29-1.45L136.29-1.45 139.84-1.2 139.84 0 128.69 0 128.69-1.2 131.39-1.4Q131.74-14.6 131.74-17.43 131.74-20.25 130.69-21.65 129.64-23.05 127.07-23.05 124.49-23.05 122.24-20.6 119.99-18.15 119.99-16.1L119.99-16.1 119.99-1.45 123.29-1.2 123.29 0 111.79 0 111.79-1.2 115.09-1.45 115.09-35.9 110.69-36.1 110.64-37.25 119.99-38.3Q119.69-21.15 119.64-20L119.64-20 120.04-20Q121.39-22.3 123.67-23.53 125.94-24.75 128.64-24.75ZM154.59 0.55Q149.44 0.55 146.29-2.95 143.14-6.45 143.14-12.2 143.14-17.95 146.46-21.45 149.79-24.95 154.84-24.95 159.89-24.95 162.39-22.68 164.89-20.4 164.89-16.35L164.89-16.35Q164.89-15.15 164.69-13.95L164.69-13.95 148.54-13.95 148.54-12.2Q148.54-6.6 150.14-3.73 151.74-0.85 155.39-0.85L155.39-0.85Q160.54-0.85 163.34-5.35L163.34-5.35Q164.44-5 164.44-4.3L164.44-4.3Q164.44-3.05 162.14-1.4L162.14-1.4Q161.04-0.6 159.04-0.03 157.04 0.55 154.59 0.55L154.59 0.55ZM160.14-17.4L160.14-17.4Q160.14-19.7 159.19-21.35L159.19-21.35Q157.89-23.55 154.99-23.55L154.99-23.55Q149.59-23.55 148.69-15.75L148.69-15.75 160.04-15.75Q160.14-16.6 160.14-17.4ZM169.39 0.05L169.39-1.15 185.19-22.8 172.59-22.65 170.89-17.35 169.59-17.4 169.64-24.45 190.69-24.55 190.69-23.35 175.04-1.7 187.24-1.85 189.24-7.1 190.54-7.1 190.19-0.05 169.39 0.05ZM217.98-30.65Q215.78-31.5 214.78-31.6 213.78-31.7 212.36-31.78 210.93-31.85 209.01-31.85 207.08-31.85 204.43-31.6L204.43-31.6 204.43-1.75 209.93-1.6Q215.08-1.8 217.53-2.9L217.53-2.9Q224.18-5.95 224.23-16.7L224.23-16.7Q224.23-20.9 223.28-23.9 222.33-26.9 221.26-28.35 220.18-29.8 217.98-30.65ZM200.98-33.35L200.98-33.35 210.68-33.6Q215.13-33.6 218.48-32.85 221.83-32.1 224.63-30.3L224.63-30.3Q230.33-26.65 230.33-16.75L230.33-16.75Q230.33 0 209.93 0L209.93 0 194.83 0 194.83-1.3 199.18-1.7 199.18-31.65 194.83-32.2 194.83-33.5Q197.88-33.35 200.98-33.35ZM246.73 0.55Q241.58 0.55 238.43-2.95 235.28-6.45 235.28-12.2 235.28-17.95 238.61-21.45 241.93-24.95 246.98-24.95 252.03-24.95 254.53-22.68 257.03-20.4 257.03-16.35L257.03-16.35Q257.03-15.15 256.83-13.95L256.83-13.95 240.68-13.95 240.68-12.2Q240.68-6.6 242.28-3.73 243.88-0.85 247.53-0.85L247.53-0.85Q252.68-0.85 255.48-5.35L255.48-5.35Q256.58-5 256.58-4.3L256.58-4.3Q256.58-3.05 254.28-1.4L254.28-1.4Q253.18-0.6 251.18-0.03 249.18 0.55 246.73 0.55L246.73 0.55ZM252.28-17.4L252.28-17.4Q252.28-19.7 251.33-21.35L251.33-21.35Q250.03-23.55 247.13-23.55L247.13-23.55Q241.73-23.55 240.83-15.75L240.83-15.75 252.18-15.75Q252.28-16.6 252.28-17.4ZM259.03-23.2L259.03-24.4 269.53-24.4 269.53-23.1 266.13-22.8 273.23-5.35 279.23-22.15 275.23-23.1 275.23-24.4 284.83-24.4 284.83-23.1 281.33-22.15 273.03 0 271.03 0 261.38-22.85 259.03-23.2ZM295.68-0.7L295.68-0.7Q297.68-0.7 299.15-1.8 300.63-2.9 300.63-5.5L300.63-5.5Q300.63-7.25 299.05-8.4 297.48-9.55 295.13-10.48 292.77-11.4 291.95-11.78 291.13-12.15 289.77-13L289.77-13Q287.32-14.65 287.32-17.75 287.32-20.85 289.77-22.9 292.23-24.95 296.93-24.95L296.93-24.95Q299.93-24.95 302.05-23.63 304.18-22.3 304.18-20.45 304.18-18.6 302.77-17.9L302.77-17.9Q302.02-17.55 301.3-17.55 300.57-17.55 299.88-17.85L299.88-17.85Q300.07-18.75 300.07-19.8 300.07-20.85 299.57-21.9L299.57-21.9Q298.73-23.7 296.32-23.7 293.93-23.7 292.68-22.4 291.43-21.1 291.43-19L291.43-19Q291.43-16.85 293.23-15.8L293.23-15.8Q294.57-14.95 296.57-14.25 298.57-13.55 299.3-13.28 300.02-13 301.23-12.35 302.43-11.7 303.02-11L303.02-11Q304.57-9.3 304.57-6.4 304.57-3.5 301.98-1.48 299.38 0.55 295.63 0.55 291.88 0.55 289.05-0.6 286.23-1.75 286.23-3.95L286.23-3.95Q286.23-6 289.27-6.65L289.27-6.65Q290.18-0.7 295.68-0.7Z" opacity="1" transform="matrix(1,0,0,1,0,0)" fill="black" class="wordmark-text-0" id="SvgjsPath1261" stroke-width="5" stroke="black" stroke-linejoin="round"></path></svg></g></svg></g><g transform="matrix(1,0,0,1,2.5,63.736307403451974)"><svg viewBox="0 0 390.52 24.538569224121964" height="24.538569224121964" width="390.52"><g transform="matrix(1,0,0,1,0,0)"><svg width="390.52" viewBox="0.6499999999999999 -38 810.98 51.9" height="24.538569224121964" data-palette-color="#233565"><path d="M18.95-19.4Q25.55-17.55 28.9-15.05 32.25-12.55 32.25-8.4L32.25-8.4Q32.25-5.7 30.78-3.63 29.3-1.55 26.7-0.45 24.1 0.65 20.85 0.65L20.85 0.65Q17.3 0.65 14.1-0.85 10.9-2.35 8.2-5.05L8.2-5.05 8.2-0.05 3.65-0.05 3.65-11.6 6.55-11.75Q9.2-7.9 13-5.7 16.8-3.5 20.55-3.5L20.55-3.5Q23.35-3.5 25.13-4.7 26.9-5.9 26.9-7.95L26.9-7.95Q26.9-10.2 24.4-11.83 21.9-13.45 15.9-15L15.9-15Q9.65-16.65 6.75-19.33 3.85-22 3.85-25.9L3.85-25.9Q3.85-28.6 5.33-30.68 6.8-32.75 9.3-33.88 11.8-35 14.75-35L14.75-35Q21.7-35 26-29.9L26-29.9 26-34.3 30.55-34.3 30.55-22.9 27.75-22.75Q25.65-26.75 22.6-28.8 19.55-30.85 15.9-30.85L15.9-30.85Q12.95-30.85 11.08-29.58 9.2-28.3 9.2-26.15L9.2-26.15Q9.2-23.95 11.48-22.38 13.75-20.8 18.95-19.4L18.95-19.4ZM43.6-28.9Q42-28.9 40.9-29.75 39.8-30.6 39.8-31.9L39.8-31.9Q39.8-33.25 40.9-34.13 42-35 43.6-35L43.6-35Q45.3-35 46.4-34.13 47.5-33.25 47.5-31.9L47.5-31.9Q47.5-30.6 46.4-29.75 45.3-28.9 43.6-28.9L43.6-28.9ZM46.6-3.95L51.95-3.95 51.95 0 36.4 0 36.4-3.95 41.7-3.95 41.7-19.6 36.4-19.6 36.4-23.55 46.6-23.55 46.6-3.95ZM76.4-6.7L78.5-3.5Q73.7 0.7 67.55 0.7L67.55 0.7Q64.2 0.7 61.2-0.7 58.2-2.1 56.35-4.8 54.5-7.5 54.5-11.2L54.5-11.2Q54.5-15.15 56.4-18.1 58.3-21.05 61.35-22.63 64.4-24.2 67.75-24.2L67.75-24.2Q70.7-24.2 73.02-23.25 75.35-22.3 76.67-20.6 78-18.9 78-16.7L78-16.7Q78-13.4 75.17-11.58 72.35-9.75 68.4-9.75L68.4-9.75Q65.85-9.75 63.65-10.28 61.45-10.8 59.2-11.8L59.2-11.8 59.2-11.35Q59.2-9 60.32-7.2 61.45-5.4 63.35-4.45 65.25-3.5 67.5-3.5L67.5-3.5Q72.6-3.5 76.4-6.7L76.4-6.7ZM68.1-20.3Q65.4-20.3 63.07-18.75 60.75-17.2 59.75-14.55L59.75-14.55Q63.55-13.2 67.35-13.2L67.35-13.2Q69.85-13.2 71.47-14.13 73.1-15.05 73.1-16.7L73.1-16.7Q73.1-18.3 71.7-19.3 70.3-20.3 68.1-20.3L68.1-20.3ZM127.99-3.95L132.64-3.95 132.64 0 118.84 0 118.84-3.95 123.09-3.95 123.09-14Q123.09-16.6 121.94-18.1 120.79-19.6 118.49-19.6L118.49-19.6Q116.44-19.6 114.29-18.25 112.14-16.9 110.09-14.4L110.09-14.4 110.09-14.15 110.09-3.95 114.39-3.95 114.39 0 100.89 0 100.89-3.95 105.19-3.95 105.19-14Q105.19-16.6 103.99-18.1 102.79-19.6 100.49-19.6L100.49-19.6Q98.44-19.6 96.29-18.23 94.14-16.85 92.04-14.3L92.04-14.3 92.04-3.95 96.39-3.95 96.39 0 81.84 0 81.84-3.95 87.14-3.95 87.14-19.6 81.84-19.6 81.84-23.55 92.04-23.55 92.04-18.4Q94.24-21.15 96.84-22.65 99.44-24.15 102.24-24.15L102.24-24.15Q105.09-24.15 107.02-22.58 108.94-21 109.69-17.95L109.69-17.95Q111.94-20.9 114.62-22.53 117.29-24.15 120.19-24.15L120.19-24.15Q123.84-24.15 125.92-21.58 127.99-19 127.99-14.15L127.99-14.15 127.99-3.95ZM153.44-24.2Q156.39-24.2 158.89-22.65 161.39-21.1 162.89-18.32 164.39-15.55 164.39-12L164.39-12Q164.39-8.35 162.77-5.45 161.14-2.55 158.34-0.93 155.54 0.7 152.14 0.7L152.14 0.7Q147.69 0.7 143.94-2.7L143.94-2.7 143.94 6.95 149.39 6.95 149.39 10.9 133.89 10.9 133.89 6.95 139.14 6.95 139.14-19.6 133.89-19.6 133.89-23.55 143.94-23.55 143.94-19Q145.89-21.4 148.39-22.8 150.89-24.2 153.44-24.2L153.44-24.2ZM151.09-3.5Q153.44-3.5 155.32-4.58 157.19-5.65 158.24-7.6 159.29-9.55 159.29-12.05L159.29-12.05Q159.29-15.6 157.27-17.82 155.24-20.05 152.09-20.05L152.09-20.05Q149.94-20.05 147.84-18.75 145.74-17.45 143.94-15.15L143.94-15.15 143.94-6.4Q147.54-3.5 151.09-3.5L151.09-3.5ZM189.29-24.15L191.39-24.15 191.39-14.15 187.04-14.15 187.04-19.3Q185.09-19.3 182.79-17.85 180.49-16.4 178.04-13.75L178.04-13.75 178.04-3.95 183.39-3.95 183.39 0 167.84 0 167.84-3.95 173.14-3.95 173.14-19.6 167.84-19.6 167.84-23.55 178.04-23.55 178.04-17.65Q180.69-20.7 183.56-22.43 186.44-24.15 189.29-24.15L189.29-24.15ZM217.09-6.7L219.19-3.5Q214.39 0.7 208.24 0.7L208.24 0.7Q204.89 0.7 201.89-0.7 198.89-2.1 197.04-4.8 195.19-7.5 195.19-11.2L195.19-11.2Q195.19-15.15 197.09-18.1 198.99-21.05 202.04-22.63 205.09-24.2 208.44-24.2L208.44-24.2Q211.39-24.2 213.71-23.25 216.04-22.3 217.36-20.6 218.69-18.9 218.69-16.7L218.69-16.7Q218.69-13.4 215.86-11.58 213.04-9.75 209.09-9.75L209.09-9.75Q206.54-9.75 204.34-10.28 202.14-10.8 199.89-11.8L199.89-11.8 199.89-11.35Q199.89-9 201.01-7.2 202.14-5.4 204.04-4.45 205.94-3.5 208.19-3.5L208.19-3.5Q213.29-3.5 217.09-6.7L217.09-6.7ZM208.79-20.3Q206.09-20.3 203.76-18.75 201.44-17.2 200.44-14.55L200.44-14.55Q204.24-13.2 208.04-13.2L208.04-13.2Q210.54-13.2 212.16-14.13 213.79-15.05 213.79-16.7L213.79-16.7Q213.79-18.3 212.39-19.3 210.99-20.3 208.79-20.3L208.79-20.3ZM250.18-13.9Q254.78-12.65 257.26-10.78 259.73-8.9 259.73-5.75L259.73-5.75Q259.73-2.85 257.28-1.07 254.83 0.7 251.23 0.7L251.23 0.7Q248.73 0.7 246.31-0.18 243.88-1.05 241.98-2.6L241.98-2.6 241.98 0.05 238.18 0.05 238.18-7.6 240.33-7.8Q242.23-5.65 245.11-4.13 247.98-2.6 250.73-2.6L250.73-2.6Q252.58-2.6 253.63-3.3 254.68-4 254.68-5.3L254.68-5.3Q254.68-6.8 253.03-7.78 251.38-8.75 247.63-9.75L247.63-9.75Q243.13-10.95 240.71-12.78 238.28-14.6 238.28-17.55L238.28-17.55Q238.28-19.4 239.31-20.93 240.33-22.45 242.21-23.33 244.08-24.2 246.53-24.2L246.53-24.2Q248.93-24.2 251.11-23.4 253.28-22.6 254.88-21.15L254.88-21.15 254.88-23.55 258.63-23.55 258.63-15.95 256.43-15.7Q255.03-18.05 252.61-19.48 250.18-20.9 247.78-20.9L247.78-20.9Q245.83-20.9 244.58-20.13 243.33-19.35 243.33-18.1L243.33-18.1Q243.33-16.75 244.98-15.83 246.63-14.9 250.18-13.9L250.18-13.9ZM286.98-6.7L289.08-3.5Q284.28 0.7 278.13 0.7L278.13 0.7Q274.78 0.7 271.78-0.7 268.78-2.1 266.93-4.8 265.08-7.5 265.08-11.2L265.08-11.2Q265.08-15.15 266.98-18.1 268.88-21.05 271.93-22.63 274.98-24.2 278.33-24.2L278.33-24.2Q281.28-24.2 283.6-23.25 285.93-22.3 287.25-20.6 288.58-18.9 288.58-16.7L288.58-16.7Q288.58-13.4 285.75-11.58 282.93-9.75 278.98-9.75L278.98-9.75Q276.43-9.75 274.23-10.28 272.03-10.8 269.78-11.8L269.78-11.8 269.78-11.35Q269.78-9 270.9-7.2 272.03-5.4 273.93-4.45 275.83-3.5 278.08-3.5L278.08-3.5Q283.18-3.5 286.98-6.7L286.98-6.7ZM278.68-20.3Q275.98-20.3 273.65-18.75 271.33-17.2 270.33-14.55L270.33-14.55Q274.13-13.2 277.93-13.2L277.93-13.2Q280.43-13.2 282.05-14.13 283.68-15.05 283.68-16.7L283.68-16.7Q283.68-18.3 282.28-19.3 280.88-20.3 278.68-20.3L278.68-20.3ZM329.02-7L331.22-3.8Q326.57 0.7 320.37 0.7L320.37 0.7Q317.07 0.7 314.17-0.85 311.27-2.4 309.52-5.23 307.77-8.05 307.77-11.7L307.77-11.7Q307.77-15.15 309.37-18.03 310.97-20.9 313.67-22.55 316.37-24.2 319.52-24.2L319.52-24.2Q324.52-24.2 327.32-20.65L327.32-20.65 327.32-23.55 330.87-23.55 330.87-15.3 328.77-15.15Q326.32-20.15 320.97-20.15L320.97-20.15Q318.67-20.15 316.82-19.07 314.97-18 313.92-16.1 312.87-14.2 312.87-11.75L312.87-11.75Q312.87-9.35 314-7.45 315.12-5.55 316.95-4.53 318.77-3.5 320.87-3.5L320.87-3.5Q323.32-3.45 325.2-4.35 327.07-5.25 329.02-7L329.02-7ZM347.77 0.7Q344.32 0.7 341.32-0.85 338.32-2.4 336.55-5.25 334.77-8.1 334.77-11.75L334.77-11.75Q334.77-15.45 336.55-18.28 338.32-21.1 341.32-22.65 344.32-24.2 347.77-24.2L347.77-24.2Q351.17-24.2 354.15-22.65 357.12-21.1 358.92-18.25 360.72-15.4 360.72-11.75L360.72-11.75Q360.72-8.1 358.97-5.25 357.22-2.4 354.25-0.85 351.27 0.7 347.77 0.7L347.77 0.7ZM347.77-3.25Q350.02-3.25 351.82-4.3 353.62-5.35 354.65-7.28 355.67-9.2 355.67-11.75L355.67-11.75Q355.67-14.3 354.65-16.23 353.62-18.15 351.82-19.2 350.02-20.25 347.77-20.25L347.77-20.25Q344.32-20.25 342.1-17.93 339.87-15.6 339.87-11.75L339.87-11.75Q339.87-7.9 342.1-5.58 344.32-3.25 347.77-3.25L347.77-3.25ZM410.37-3.95L415.02-3.95 415.02 0 401.22 0 401.22-3.95 405.47-3.95 405.47-14Q405.47-16.6 404.32-18.1 403.17-19.6 400.87-19.6L400.87-19.6Q398.82-19.6 396.67-18.25 394.52-16.9 392.47-14.4L392.47-14.4 392.47-14.15 392.47-3.95 396.77-3.95 396.77 0 383.27 0 383.27-3.95 387.57-3.95 387.57-14Q387.57-16.6 386.37-18.1 385.17-19.6 382.87-19.6L382.87-19.6Q380.82-19.6 378.67-18.23 376.52-16.85 374.42-14.3L374.42-14.3 374.42-3.95 378.77-3.95 378.77 0 364.22 0 364.22-3.95 369.52-3.95 369.52-19.6 364.22-19.6 364.22-23.55 374.42-23.55 374.42-18.4Q376.62-21.15 379.22-22.65 381.82-24.15 384.62-24.15L384.62-24.15Q387.47-24.15 389.39-22.58 391.32-21 392.07-17.95L392.07-17.95Q394.32-20.9 396.99-22.53 399.67-24.15 402.57-24.15L402.57-24.15Q406.22-24.15 408.29-21.58 410.37-19 410.37-14.15L410.37-14.15 410.37-3.95ZM435.82-24.2Q438.77-24.2 441.27-22.65 443.77-21.1 445.27-18.32 446.77-15.55 446.77-12L446.77-12Q446.77-8.35 445.14-5.45 443.52-2.55 440.72-0.93 437.92 0.7 434.52 0.7L434.52 0.7Q430.07 0.7 426.32-2.7L426.32-2.7 426.32 6.95 431.77 6.95 431.77 10.9 416.27 10.9 416.27 6.95 421.52 6.95 421.52-19.6 416.27-19.6 416.27-23.55 426.32-23.55 426.32-19Q428.27-21.4 430.77-22.8 433.27-24.2 435.82-24.2L435.82-24.2ZM433.47-3.5Q435.82-3.5 437.69-4.58 439.57-5.65 440.62-7.6 441.67-9.55 441.67-12.05L441.67-12.05Q441.67-15.6 439.64-17.82 437.62-20.05 434.47-20.05L434.47-20.05Q432.32-20.05 430.22-18.75 428.12-17.45 426.32-15.15L426.32-15.15 426.32-6.4Q429.92-3.5 433.47-3.5L433.47-3.5ZM463.81 0.7Q460.36 0.7 457.36-0.85 454.36-2.4 452.59-5.25 450.81-8.1 450.81-11.75L450.81-11.75Q450.81-15.45 452.59-18.28 454.36-21.1 457.36-22.65 460.36-24.2 463.81-24.2L463.81-24.2Q467.21-24.2 470.19-22.65 473.16-21.1 474.96-18.25 476.76-15.4 476.76-11.75L476.76-11.75Q476.76-8.1 475.01-5.25 473.26-2.4 470.29-0.85 467.31 0.7 463.81 0.7L463.81 0.7ZM463.81-3.25Q466.06-3.25 467.86-4.3 469.66-5.35 470.69-7.28 471.71-9.2 471.71-11.75L471.71-11.75Q471.71-14.3 470.69-16.23 469.66-18.15 467.86-19.2 466.06-20.25 463.81-20.25L463.81-20.25Q460.36-20.25 458.14-17.93 455.91-15.6 455.91-11.75L455.91-11.75Q455.91-7.9 458.14-5.58 460.36-3.25 463.81-3.25L463.81-3.25ZM509.81-3.95L514.51-3.95 514.51 0 500.61 0 500.61-3.95 504.96-3.95 504.96-13.7Q504.96-16.45 503.59-18.03 502.21-19.6 499.66-19.6L499.66-19.6Q495.31-19.6 490.46-14.1L490.46-14.1 490.46-3.95 494.81-3.95 494.81 0 480.26 0 480.26-3.95 485.56-3.95 485.56-19.6 480.26-19.6 480.26-23.55 490.46-23.55 490.46-18Q493.26-21.1 495.84-22.63 498.41-24.15 501.36-24.15L501.36-24.15Q505.41-24.15 507.61-21.55 509.81-18.95 509.81-13.85L509.81-13.85 509.81-3.95ZM538.91-6.7L541.01-3.5Q536.21 0.7 530.06 0.7L530.06 0.7Q526.71 0.7 523.71-0.7 520.71-2.1 518.86-4.8 517.01-7.5 517.01-11.2L517.01-11.2Q517.01-15.15 518.91-18.1 520.81-21.05 523.86-22.63 526.91-24.2 530.26-24.2L530.26-24.2Q533.21-24.2 535.53-23.25 537.86-22.3 539.18-20.6 540.51-18.9 540.51-16.7L540.51-16.7Q540.51-13.4 537.68-11.58 534.86-9.75 530.91-9.75L530.91-9.75Q528.36-9.75 526.16-10.28 523.96-10.8 521.71-11.8L521.71-11.8 521.71-11.35Q521.71-9 522.83-7.2 523.96-5.4 525.86-4.45 527.76-3.5 530.01-3.5L530.01-3.5Q535.11-3.5 538.91-6.7L538.91-6.7ZM530.61-20.3Q527.91-20.3 525.58-18.75 523.26-17.2 522.26-14.55L522.26-14.55Q526.06-13.2 529.86-13.2L529.86-13.2Q532.36-13.2 533.98-14.13 535.61-15.05 535.61-16.7L535.61-16.7Q535.61-18.3 534.21-19.3 532.81-20.3 530.61-20.3L530.61-20.3ZM588.05-4.05L589.1-0.45Q588.4-0.05 587.4 0.23 586.4 0.5 585.3 0.5L585.3 0.5Q583.45 0.5 582.1-0.48 580.75-1.45 580.25-3.3L580.25-3.3Q578.25-1.5 576.03-0.4 573.8 0.7 571.1 0.7L571.1 0.7Q568.05 0.7 565.43-0.85 562.8-2.4 561.25-5.18 559.7-7.95 559.7-11.45L559.7-11.45Q559.7-15.1 561.33-18.03 562.95-20.95 565.75-22.58 568.55-24.2 571.95-24.2L571.95-24.2Q576.3-24.2 579.95-21L579.95-21 579.95-30.35 574.65-30.35 574.65-34.3 584.75-34.3 584.75-6.05Q584.75-3.65 586.4-3.65L586.4-3.65Q587.5-3.65 588.05-4.05L588.05-4.05ZM564.8-11.5Q564.8-7.9 566.83-5.7 568.85-3.5 572.1-3.5L572.1-3.5Q575.85-3.5 579.95-6.9L579.95-6.9 579.95-17.25Q576.45-20.05 573.05-20.05L573.05-20.05Q570.7-20.05 568.8-18.95 566.9-17.85 565.85-15.9 564.8-13.95 564.8-11.5L564.8-11.5ZM613.95-6.7L616.05-3.5Q611.25 0.7 605.1 0.7L605.1 0.7Q601.75 0.7 598.75-0.7 595.75-2.1 593.9-4.8 592.05-7.5 592.05-11.2L592.05-11.2Q592.05-15.15 593.95-18.1 595.85-21.05 598.9-22.63 601.95-24.2 605.3-24.2L605.3-24.2Q608.25-24.2 610.57-23.25 612.9-22.3 614.22-20.6 615.55-18.9 615.55-16.7L615.55-16.7Q615.55-13.4 612.72-11.58 609.9-9.75 605.95-9.75L605.95-9.75Q603.4-9.75 601.2-10.28 599-10.8 596.75-11.8L596.75-11.8 596.75-11.35Q596.75-9 597.87-7.2 599-5.4 600.9-4.45 602.8-3.5 605.05-3.5L605.05-3.5Q610.15-3.5 613.95-6.7L613.95-6.7ZM605.65-20.3Q602.95-20.3 600.62-18.75 598.3-17.2 597.3-14.55L597.3-14.55Q601.1-13.2 604.9-13.2L604.9-13.2Q607.4-13.2 609.02-14.13 610.65-15.05 610.65-16.7L610.65-16.7Q610.65-18.3 609.25-19.3 607.85-20.3 605.65-20.3L605.65-20.3ZM661.04-4.15L662.04-0.6Q660.39 0.4 658.19 0.4L658.19 0.4Q656.34 0.4 655.07-0.68 653.79-1.75 653.29-3.75L653.29-3.75Q648.29 0.7 643.39 0.7L643.39 0.7Q639.94 0.7 637.54-1.25 635.14-3.2 635.14-6.7L635.14-6.7Q635.14-9.1 636.49-10.88 637.84-12.65 640.12-13.58 642.39-14.5 645.04-14.5L645.04-14.5Q647.29-14.5 649.19-14.08 651.09-13.65 653.09-12.85L653.09-12.85 653.09-15.05Q653.09-17.6 651.39-18.8 649.69-20 646.94-20L646.94-20Q643.04-20 637.54-17.85L637.54-17.85 636.54-21.65Q642.44-24.15 647.54-24.15L647.54-24.15Q652.39-24.15 655.07-21.78 657.74-19.4 657.74-14.85L657.74-14.85 657.74-6.2Q657.74-3.75 659.49-3.75L659.49-3.75Q660.24-3.75 661.04-4.15L661.04-4.15ZM639.99-6.95Q639.99-5.25 641.34-4.33 642.69-3.4 644.64-3.4L644.64-3.4Q646.34-3.4 648.54-4.3 650.74-5.2 653.09-6.95L653.09-6.95 653.09-9.6Q649.69-10.8 645.89-10.9L645.89-10.9Q643.44-10.9 641.72-9.88 639.99-8.85 639.99-6.95L639.99-6.95ZM692.89-3.95L697.59-3.95 697.59 0 683.69 0 683.69-3.95 688.04-3.95 688.04-13.7Q688.04-16.6 686.67-18.2 685.29-19.8 682.69-19.8L682.69-19.8Q678.64-19.8 673.69-14.3L673.69-14.3 673.69-3.95 677.99-3.95 677.99 0 663.49 0 663.49-3.95 668.79-3.95 668.79-30.35 663.49-30.35 663.49-34.3 673.69-34.3 673.69-18.15Q676.44-21.15 679.02-22.65 681.59-24.15 684.64-24.15L684.64-24.15Q688.69-24.15 690.79-21.58 692.89-19 692.89-13.85L692.89-13.85 692.89-3.95ZM713.04 0.7Q709.59 0.7 706.59-0.85 703.59-2.4 701.81-5.25 700.04-8.1 700.04-11.75L700.04-11.75Q700.04-15.45 701.81-18.28 703.59-21.1 706.59-22.65 709.59-24.2 713.04-24.2L713.04-24.2Q716.44-24.2 719.41-22.65 722.39-21.1 724.19-18.25 725.99-15.4 725.99-11.75L725.99-11.75Q725.99-8.1 724.24-5.25 722.49-2.4 719.51-0.85 716.54 0.7 713.04 0.7L713.04 0.7ZM713.04-3.25Q715.29-3.25 717.09-4.3 718.89-5.35 719.91-7.28 720.94-9.2 720.94-11.75L720.94-11.75Q720.94-14.3 719.91-16.23 718.89-18.15 717.09-19.2 715.29-20.25 713.04-20.25L713.04-20.25Q709.59-20.25 707.36-17.93 705.14-15.6 705.14-11.75L705.14-11.75Q705.14-7.9 707.36-5.58 709.59-3.25 713.04-3.25L713.04-3.25ZM750.94-24.15L753.04-24.15 753.04-14.15 748.69-14.15 748.69-19.3Q746.74-19.3 744.44-17.85 742.14-16.4 739.69-13.75L739.69-13.75 739.69-3.95 745.04-3.95 745.04 0 729.49 0 729.49-3.95 734.79-3.95 734.79-19.6 729.49-19.6 729.49-23.55 739.69-23.55 739.69-17.65Q742.34-20.7 745.21-22.43 748.09-24.15 750.94-24.15L750.94-24.15ZM783.33-4.15L784.33-0.6Q782.68 0.4 780.48 0.4L780.48 0.4Q778.63 0.4 777.36-0.68 776.08-1.75 775.58-3.75L775.58-3.75Q770.58 0.7 765.68 0.7L765.68 0.7Q762.23 0.7 759.83-1.25 757.43-3.2 757.43-6.7L757.43-6.7Q757.43-9.1 758.78-10.88 760.13-12.65 762.41-13.58 764.68-14.5 767.33-14.5L767.33-14.5Q769.58-14.5 771.48-14.08 773.38-13.65 775.38-12.85L775.38-12.85 775.38-15.05Q775.38-17.6 773.68-18.8 771.98-20 769.23-20L769.23-20Q765.33-20 759.83-17.85L759.83-17.85 758.83-21.65Q764.73-24.15 769.83-24.15L769.83-24.15Q774.68-24.15 777.36-21.78 780.03-19.4 780.03-14.85L780.03-14.85 780.03-6.2Q780.03-3.75 781.78-3.75L781.78-3.75Q782.53-3.75 783.33-4.15L783.33-4.15ZM762.28-6.95Q762.28-5.25 763.63-4.33 764.98-3.4 766.93-3.4L766.93-3.4Q768.63-3.4 770.83-4.3 773.03-5.2 775.38-6.95L775.38-6.95 775.38-9.6Q771.98-10.8 768.18-10.9L768.18-10.9Q765.73-10.9 764.01-9.88 762.28-8.85 762.28-6.95L762.28-6.95ZM799.08-13.9Q803.68-12.65 806.16-10.78 808.63-8.9 808.63-5.75L808.63-5.75Q808.63-2.85 806.18-1.07 803.73 0.7 800.13 0.7L800.13 0.7Q797.63 0.7 795.21-0.18 792.78-1.05 790.88-2.6L790.88-2.6 790.88 0.05 787.08 0.05 787.08-7.6 789.23-7.8Q791.13-5.65 794.01-4.13 796.88-2.6 799.63-2.6L799.63-2.6Q801.48-2.6 802.53-3.3 803.58-4 803.58-5.3L803.58-5.3Q803.58-6.8 801.93-7.78 800.28-8.75 796.53-9.75L796.53-9.75Q792.03-10.95 789.61-12.78 787.18-14.6 787.18-17.55L787.18-17.55Q787.18-19.4 788.21-20.93 789.23-22.45 791.11-23.33 792.98-24.2 795.43-24.2L795.43-24.2Q797.83-24.2 800.01-23.4 802.18-22.6 803.78-21.15L803.78-21.15 803.78-23.55 807.53-23.55 807.53-15.95 805.33-15.7Q803.93-18.05 801.51-19.48 799.08-20.9 796.68-20.9L796.68-20.9Q794.73-20.9 793.48-20.13 792.23-19.35 792.23-18.1L792.23-18.1Q792.23-16.75 793.88-15.83 795.53-14.9 799.08-13.9L799.08-13.9Z" opacity="1" transform="matrix(1,0,0,1,0,0)" fill="black" class="slogan-text-1" id="SvgjsPath1260" stroke-width="5" stroke="black" stroke-linejoin="round"></path></svg></g></svg></g></svg></g></svg></g><g transform="matrix(1,0,0,1,122.8992062218255,0)"><svg viewBox="0 0 149.721587556349 121.9958794993072" height="121.9958794993072" width="149.721587556349"><g><svg xmlns="http://www.w3.org/2000/svg" xmlns:xlink="http://www.w3.org/1999/xlink" version="1.1" x="0" y="0" viewBox="1.5 7.518 65.001 52.964" style="enable-background:new 0 0 68 68;" xml:space="preserve" height="121.9958794993072" width="149.721587556349" class="icon-icon-0" data-fill-palette-color="accent" id="SvgjsSvg1259"><g fill="black" stroke-width="5" stroke="black" stroke-linejoin="round"><g fill="black" stroke-width="5" stroke="black" stroke-linejoin="round"><path d="M1.5 45.84c0 1.167 0.95 2.117 2.117 2.117h23.226v6.648h-9.518c-0.482 0-0.875 0.393-0.875 0.875s0.393 0.875 0.875 0.875h20.786c0.482 0 0.875-0.393 0.875-0.875s-0.393-0.875-0.875-0.875h-9.518v-6.648h15.173v-5.186H1.5V45.84z" fill="black" stroke-width="5" stroke="black" stroke-linejoin="round"></path><path d="M65.875 19.535H54.687h-9.545c-0.345 0-0.625 0.28-0.625 0.625v21.861 6.686 11.15c0 0.345 0.28 0.625 0.625 0.625h20.734c0.345 0 0.625-0.28 0.625-0.625V20.16C66.5 19.815 66.22 19.535 65.875 19.535zM53.275 20.704h3.445c0.207 0 0.375 0.168 0.375 0.375s-0.168 0.375-0.375 0.375h-3.445c-0.207 0-0.375-0.168-0.375-0.375S53.068 20.704 53.275 20.704zM58.099 58.662h-4.823c-0.207 0-0.375-0.168-0.375-0.375s0.168-0.375 0.375-0.375h4.823c0.207 0 0.375 0.168 0.375 0.375S58.306 58.662 58.099 58.662zM64.594 55.274c0 0.758-0.617 1.375-1.375 1.375H47.797c-0.758 0-1.375-0.617-1.375-1.375V24.743c0-0.758 0.617-1.375 1.375-1.375h15.421c0.758 0 1.375 0.617 1.375 1.375V55.274z" fill="black" stroke-width="5" stroke="black" stroke-linejoin="round"></path><path d="M53.937 18.785v-9.15c0-1.167-0.95-2.117-2.117-2.117H3.617C2.45 7.518 1.5 8.468 1.5 9.635v32.387h42.266V20.16c0-0.758 0.617-1.375 1.375-1.375H53.937zM11.732 13.758H30.49v0.75H11.732V13.758zM11.732 21.457h5.928v0.75h-5.928V21.457zM11.732 29.155h16.192v0.75H11.732V29.155zM9.493 37.501l-3.151 1.383v-1.128l1.466-0.623-1.466-0.624v-1.128l3.151 1.383V37.501zM9.493 29.803l-3.151 1.383v-1.128l1.466-0.624L6.342 28.81v-1.127l3.151 1.382V29.803zM9.493 22.104l-3.151 1.383v-1.128l1.466-0.624-1.466-0.624v-1.127l3.151 1.382V22.104zM9.493 14.406l-3.151 1.383v-1.128l1.466-0.624-1.466-0.624v-1.127l3.151 1.382V14.406zM36.905 37.604H11.732v-0.75h25.173V37.604zM43.321 29.905H30.978v-0.75h12.343V29.905zM43.321 22.207H20.713v-0.75h22.607V22.207zM43.321 14.508h-9.777v-0.75h9.777V14.508z" fill="black" stroke-width="5" stroke="black" stroke-linejoin="round"></path><path d="M63.219 24.118H47.797c-0.345 0-0.625 0.28-0.625 0.625v30.531c0 0.345 0.28 0.625 0.625 0.625h15.421c0.345 0 0.625-0.28 0.625-0.625V24.743C63.844 24.398 63.563 24.118 63.219 24.118zM53.581 39.637l-0.281 0.828-3.103-1.243v-0.846l3.103-1.243 0.281 0.828L51.315 38.8 53.581 39.637zM54.842 42.107h-1.089l2.41-6.621h1.104L54.842 42.107zM60.825 39.222l-3.102 1.243-0.282-0.828 2.266-0.838-2.266-0.838 0.282-0.828 3.102 1.243V39.222z" fill="black" stroke-width="5" stroke="black" stroke-linejoin="round"></path></g></g></svg></g></svg></g><g></g></svg></g></svg></g></mask><g mask="url(#f9066a8f-61e6-4524-9df3-81ae4b2ee146)"><g><path transform="translate(97.42379,242.93793) scale(7.10345,7.10345)" d="M22.75-26.05l-1.7-5.7c-1.8-0.633-3.65-0.95-5.55-0.95-1.9 0-3.567 0.54-5 1.62-1.433 1.087-2.15 2.697-2.15 4.83v0c0 2.067 0.883 3.65 2.65 4.75v0c0.967 0.6 1.76 1.033 2.38 1.3 0.613 0.267 1.51 0.617 2.69 1.05 1.187 0.433 1.997 0.74 2.43 0.92 0.433 0.187 1.077 0.47 1.93 0.85 0.847 0.387 1.48 0.73 1.9 1.03 0.413 0.3 0.92 0.717 1.52 1.25 0.6 0.533 1.05 1.067 1.35 1.6v0c0.733 1.367 1.1 2.85 1.1 4.45v0c0 2.833-1.15 5.15-3.45 6.95-2.3 1.8-5.283 2.7-8.95 2.7v0c-2.8 0-5.417-0.467-7.85-1.4v0c-1.2-0.433-2.183-1.033-2.95-1.8-0.767-0.767-1.15-1.65-1.15-2.65v0c0-1.633 1.183-2.75 3.55-3.35v0c0.367 2 1.067 3.617 2.1 4.85 1.033 1.233 2.11 2.05 3.23 2.45 1.113 0.4 2.48 0.6 4.1 0.6 1.613 0 3.137-0.523 4.57-1.57 1.433-1.053 2.15-2.78 2.15-5.18v0c0-1.833-0.833-3.333-2.5-4.5v0c-1.333-0.9-2.973-1.75-4.92-2.55-1.953-0.8-3.263-1.343-3.93-1.63-0.667-0.28-1.523-0.73-2.57-1.35-1.053-0.613-1.83-1.22-2.33-1.82v0c-1.3-1.567-1.95-3.367-1.95-5.4v0c0-3.133 1.117-5.5 3.35-7.1 2.233-1.6 5.317-2.4 9.25-2.4v0c2.367 0 5.117 0.267 8.25 0.8v0 7.35z" fill="#000000" fill-rule="nonzero" stroke="none" stroke-width="1" stroke-linecap="butt" stroke-linejoin="miter" stroke-miterlimit="10" stroke-dasharray="" stroke-dashoffset="0" font-family="none" font-weight="none" font-size="none" text-anchor="none" style="mix-blend-mode: normal" data-fill-palette-color="tertiary"></path></g></g><g transform="matrix(1,0,0,1,40.47439841175577,37.08)"><svg viewBox="0 0 314.57120317648844 173.04" height="173.04" width="314.57120317648844"><g><svg viewBox="0 0 395.52 217.5684872260913" height="173.04" width="314.57120317648844"><g transform="matrix(1,0,0,1,0,129.29361059851735)"><svg viewBox="0 0 395.52 88.27487662757395" height="88.27487662757395" width="395.52"><g id="textblocktransform"><svg viewBox="0 0 395.52 88.27487662757395" height="88.27487662757395" width="395.52" id="textblock"><g><svg viewBox="0 0 395.52 56.438576304241835" height="56.438576304241835" width="395.52"><g transform="matrix(1,0,0,1,0,0)"><svg width="395.52" viewBox="-1.05 -41.3 308.62 44.9" height="56.438576304241835" data-palette-color="#233565"><path d="M22.75-26.05L21.05-31.75Q18.35-32.7 15.5-32.7 12.65-32.7 10.5-31.08 8.35-29.45 8.35-26.25L8.35-26.25Q8.35-23.15 11-21.5L11-21.5Q12.45-20.6 13.38-20.2 14.3-19.8 16.07-19.15 17.85-18.5 18.5-18.23 19.15-17.95 20.43-17.38 21.7-16.8 22.33-16.35 22.95-15.9 23.85-15.1 24.75-14.3 25.2-13.5L25.2-13.5Q26.3-11.45 26.3-9.05L26.3-9.05Q26.3-4.8 22.85-2.1 19.4 0.6 13.9 0.6L13.9 0.6Q9.7 0.6 6.05-0.8L6.05-0.8Q4.25-1.45 3.1-2.6 1.95-3.75 1.95-5.25L1.95-5.25Q1.95-7.7 5.5-8.6L5.5-8.6Q6.05-5.6 7.6-3.75 9.15-1.9 10.83-1.3 12.5-0.7 14.93-0.7 17.35-0.7 19.5-2.27 21.65-3.85 21.65-7.45L21.65-7.45Q21.65-10.2 19.15-11.95L19.15-11.95Q17.15-13.3 14.23-14.5 11.3-15.7 10.3-16.13 9.3-16.55 7.73-17.48 6.15-18.4 5.4-19.3L5.4-19.3Q3.45-21.65 3.45-24.7L3.45-24.7Q3.45-29.4 6.8-31.8 10.15-34.2 16.05-34.2L16.05-34.2Q19.6-34.2 24.3-33.4L24.3-33.4 24.3-26.05 22.75-26.05ZM35.35-5.4L35.35-5.4Q35.35-2.15 38-1.55L38-1.55Q38.6-1.4 39.15-1.4L39.15-1.4Q41.05-1.4 43.1-3.03 45.15-4.65 45.25-7.4L45.25-7.4 45.25-11.7Q35.35-11.6 35.35-5.4ZM37.35 0.6L37.35 0.6Q34.5 0.6 32.47-0.98 30.45-2.55 30.45-5.4L30.45-5.4Q30.5-9.25 34.32-11.15 38.15-13.05 45.25-13.05L45.25-13.05 45.25-17.35Q45.25-23.7 40.65-23.7L40.65-23.7Q38.3-23.7 36.85-21.75L36.85-21.75Q35.85-20.4 35.85-18.4L35.85-18.4Q35.85-17.55 36.05-16.6L36.05-16.6Q35.35-16.1 34.62-16.1 33.9-16.1 33.2-16.4L33.2-16.4Q31.6-17 31.6-18.7L31.6-18.7Q31.6-21 33.25-22.5L33.25-22.5Q35.95-24.95 40.7-24.95 45.45-24.95 47.6-22.93 49.75-20.9 49.75-16.55L49.75-16.55 49.75-1.4 53.95-1.2 54-0.05 45.65 0.55 45.2-3.9Q42.9 0.6 37.35 0.6ZM63.85-19.15L64.3-19.1Q66.55-24.9 73.34-24.9L73.34-24.9Q76.75-24.9 78.84-22.88 80.95-20.85 80.95-17.1L80.95-17.1Q80.95-10.65 80.55-1.45L80.55-1.45 84-1.2 84 0 72.95 0 72.95-1.2 75.65-1.4Q76.05-12.7 76.05-14.35 76.05-16 76-16.88 75.95-17.75 75.72-19.03 75.5-20.3 75.05-21.05L75.05-21.05Q73.95-22.9 71.59-22.9L71.59-22.9Q68.4-22.9 66.34-20.25 64.3-17.6 64.3-14.5L64.3-14.5 64.3-1.45 68.05-1.2 68.05 0 56.1 0 56.1-1.2 59.4-1.45 59.4-22.6 55.15-22.8 55.15-23.95 64.09-24.55 63.85-19.15ZM100.04-24.95L100.04-24.95Q102.84-24.95 105.44-23.75L105.44-23.75Q106.89-23.1 107.77-21.75 108.64-20.4 108.64-18.6 108.64-16.8 107.04-16.15L107.04-16.15Q106.39-15.9 105.67-15.9 104.94-15.9 104.19-16.4L104.19-16.4Q104.39-17.45 104.39-18.88 104.39-20.3 103.49-21.6L103.49-21.6Q102.19-23.55 99.79-23.55L99.79-23.55Q92.84-23.55 92.84-12.1L92.84-12.1Q92.84-6.5 94.47-3.68 96.09-0.85 99.74-0.85L99.74-0.85Q104.39-0.85 107.19-5.35L107.19-5.35Q108.29-5 108.29-4.28 108.29-3.55 107.37-2.48 106.44-1.4 104.17-0.43 101.89 0.55 98.94 0.55L98.94 0.55Q93.79 0.55 90.62-2.95 87.44-6.45 87.44-12.2 87.44-17.95 90.87-21.45 94.29-24.95 100.04-24.95ZM128.64-24.75L128.64-24.75Q136.64-24.75 136.64-17.05L136.64-17.05Q136.64-11.5 136.29-1.45L136.29-1.45 139.84-1.2 139.84 0 128.69 0 128.69-1.2 131.39-1.4Q131.74-14.6 131.74-17.43 131.74-20.25 130.69-21.65 129.64-23.05 127.07-23.05 124.49-23.05 122.24-20.6 119.99-18.15 119.99-16.1L119.99-16.1 119.99-1.45 123.29-1.2 123.29 0 111.79 0 111.79-1.2 115.09-1.45 115.09-35.9 110.69-36.1 110.64-37.25 119.99-38.3Q119.69-21.15 119.64-20L119.64-20 120.04-20Q121.39-22.3 123.67-23.53 125.94-24.75 128.64-24.75ZM154.59 0.55Q149.44 0.55 146.29-2.95 143.14-6.45 143.14-12.2 143.14-17.95 146.46-21.45 149.79-24.95 154.84-24.95 159.89-24.95 162.39-22.68 164.89-20.4 164.89-16.35L164.89-16.35Q164.89-15.15 164.69-13.95L164.69-13.95 148.54-13.95 148.54-12.2Q148.54-6.6 150.14-3.73 151.74-0.85 155.39-0.85L155.39-0.85Q160.54-0.85 163.34-5.35L163.34-5.35Q164.44-5 164.44-4.3L164.44-4.3Q164.44-3.05 162.14-1.4L162.14-1.4Q161.04-0.6 159.04-0.03 157.04 0.55 154.59 0.55L154.59 0.55ZM160.14-17.4L160.14-17.4Q160.14-19.7 159.19-21.35L159.19-21.35Q157.89-23.55 154.99-23.55L154.99-23.55Q149.59-23.55 148.69-15.75L148.69-15.75 160.04-15.75Q160.14-16.6 160.14-17.4ZM169.39 0.05L169.39-1.15 185.19-22.8 172.59-22.65 170.89-17.35 169.59-17.4 169.64-24.45 190.69-24.55 190.69-23.35 175.04-1.7 187.24-1.85 189.24-7.1 190.54-7.1 190.19-0.05 169.39 0.05ZM217.98-30.65Q215.78-31.5 214.78-31.6 213.78-31.7 212.36-31.78 210.93-31.85 209.01-31.85 207.08-31.85 204.43-31.6L204.43-31.6 204.43-1.75 209.93-1.6Q215.08-1.8 217.53-2.9L217.53-2.9Q224.18-5.95 224.23-16.7L224.23-16.7Q224.23-20.9 223.28-23.9 222.33-26.9 221.26-28.35 220.18-29.8 217.98-30.65ZM200.98-33.35L200.98-33.35 210.68-33.6Q215.13-33.6 218.48-32.85 221.83-32.1 224.63-30.3L224.63-30.3Q230.33-26.65 230.33-16.75L230.33-16.75Q230.33 0 209.93 0L209.93 0 194.83 0 194.83-1.3 199.18-1.7 199.18-31.65 194.83-32.2 194.83-33.5Q197.88-33.35 200.98-33.35ZM246.73 0.55Q241.58 0.55 238.43-2.95 235.28-6.45 235.28-12.2 235.28-17.95 238.61-21.45 241.93-24.95 246.98-24.95 252.03-24.95 254.53-22.68 257.03-20.4 257.03-16.35L257.03-16.35Q257.03-15.15 256.83-13.95L256.83-13.95 240.68-13.95 240.68-12.2Q240.68-6.6 242.28-3.73 243.88-0.85 247.53-0.85L247.53-0.85Q252.68-0.85 255.48-5.35L255.48-5.35Q256.58-5 256.58-4.3L256.58-4.3Q256.58-3.05 254.28-1.4L254.28-1.4Q253.18-0.6 251.18-0.03 249.18 0.55 246.73 0.55L246.73 0.55ZM252.28-17.4L252.28-17.4Q252.28-19.7 251.33-21.35L251.33-21.35Q250.03-23.55 247.13-23.55L247.13-23.55Q241.73-23.55 240.83-15.75L240.83-15.75 252.18-15.75Q252.28-16.6 252.28-17.4ZM259.03-23.2L259.03-24.4 269.53-24.4 269.53-23.1 266.13-22.8 273.23-5.35 279.23-22.15 275.23-23.1 275.23-24.4 284.83-24.4 284.83-23.1 281.33-22.15 273.03 0 271.03 0 261.38-22.85 259.03-23.2ZM295.68-0.7L295.68-0.7Q297.68-0.7 299.15-1.8 300.63-2.9 300.63-5.5L300.63-5.5Q300.63-7.25 299.05-8.4 297.48-9.55 295.13-10.48 292.77-11.4 291.95-11.78 291.13-12.15 289.77-13L289.77-13Q287.32-14.65 287.32-17.75 287.32-20.85 289.77-22.9 292.23-24.95 296.93-24.95L296.93-24.95Q299.93-24.95 302.05-23.63 304.18-22.3 304.18-20.45 304.18-18.6 302.77-17.9L302.77-17.9Q302.02-17.55 301.3-17.55 300.57-17.55 299.88-17.85L299.88-17.85Q300.07-18.75 300.07-19.8 300.07-20.85 299.57-21.9L299.57-21.9Q298.73-23.7 296.32-23.7 293.93-23.7 292.68-22.4 291.43-21.1 291.43-19L291.43-19Q291.43-16.85 293.23-15.8L293.23-15.8Q294.57-14.95 296.57-14.25 298.57-13.55 299.3-13.28 300.02-13 301.23-12.35 302.43-11.7 303.02-11L303.02-11Q304.57-9.3 304.57-6.4 304.57-3.5 301.98-1.48 299.38 0.55 295.63 0.55 291.88 0.55 289.05-0.6 286.23-1.75 286.23-3.95L286.23-3.95Q286.23-6 289.27-6.65L289.27-6.65Q290.18-0.7 295.68-0.7Z" opacity="1" transform="matrix(1,0,0,1,0,0)" fill="#000000" class="wordmark-text-0" data-fill-palette-color="primary" id="text-0"></path></svg></g></svg></g><g transform="matrix(1,0,0,1,2.5,63.736307403451974)"><svg viewBox="0 0 390.52 24.538569224121964" height="24.538569224121964" width="390.52"><g transform="matrix(1,0,0,1,0,0)"><svg width="390.52" viewBox="0.6499999999999999 -38 810.98 51.9" height="24.538569224121964" data-palette-color="#233565"><path d="M18.95-19.4Q25.55-17.55 28.9-15.05 32.25-12.55 32.25-8.4L32.25-8.4Q32.25-5.7 30.78-3.63 29.3-1.55 26.7-0.45 24.1 0.65 20.85 0.65L20.85 0.65Q17.3 0.65 14.1-0.85 10.9-2.35 8.2-5.05L8.2-5.05 8.2-0.05 3.65-0.05 3.65-11.6 6.55-11.75Q9.2-7.9 13-5.7 16.8-3.5 20.55-3.5L20.55-3.5Q23.35-3.5 25.13-4.7 26.9-5.9 26.9-7.95L26.9-7.95Q26.9-10.2 24.4-11.83 21.9-13.45 15.9-15L15.9-15Q9.65-16.65 6.75-19.33 3.85-22 3.85-25.9L3.85-25.9Q3.85-28.6 5.33-30.68 6.8-32.75 9.3-33.88 11.8-35 14.75-35L14.75-35Q21.7-35 26-29.9L26-29.9 26-34.3 30.55-34.3 30.55-22.9 27.75-22.75Q25.65-26.75 22.6-28.8 19.55-30.85 15.9-30.85L15.9-30.85Q12.95-30.85 11.08-29.58 9.2-28.3 9.2-26.15L9.2-26.15Q9.2-23.95 11.48-22.38 13.75-20.8 18.95-19.4L18.95-19.4ZM43.6-28.9Q42-28.9 40.9-29.75 39.8-30.6 39.8-31.9L39.8-31.9Q39.8-33.25 40.9-34.13 42-35 43.6-35L43.6-35Q45.3-35 46.4-34.13 47.5-33.25 47.5-31.9L47.5-31.9Q47.5-30.6 46.4-29.75 45.3-28.9 43.6-28.9L43.6-28.9ZM46.6-3.95L51.95-3.95 51.95 0 36.4 0 36.4-3.95 41.7-3.95 41.7-19.6 36.4-19.6 36.4-23.55 46.6-23.55 46.6-3.95ZM76.4-6.7L78.5-3.5Q73.7 0.7 67.55 0.7L67.55 0.7Q64.2 0.7 61.2-0.7 58.2-2.1 56.35-4.8 54.5-7.5 54.5-11.2L54.5-11.2Q54.5-15.15 56.4-18.1 58.3-21.05 61.35-22.63 64.4-24.2 67.75-24.2L67.75-24.2Q70.7-24.2 73.02-23.25 75.35-22.3 76.67-20.6 78-18.9 78-16.7L78-16.7Q78-13.4 75.17-11.58 72.35-9.75 68.4-9.75L68.4-9.75Q65.85-9.75 63.65-10.28 61.45-10.8 59.2-11.8L59.2-11.8 59.2-11.35Q59.2-9 60.32-7.2 61.45-5.4 63.35-4.45 65.25-3.5 67.5-3.5L67.5-3.5Q72.6-3.5 76.4-6.7L76.4-6.7ZM68.1-20.3Q65.4-20.3 63.07-18.75 60.75-17.2 59.75-14.55L59.75-14.55Q63.55-13.2 67.35-13.2L67.35-13.2Q69.85-13.2 71.47-14.13 73.1-15.05 73.1-16.7L73.1-16.7Q73.1-18.3 71.7-19.3 70.3-20.3 68.1-20.3L68.1-20.3ZM127.99-3.95L132.64-3.95 132.64 0 118.84 0 118.84-3.95 123.09-3.95 123.09-14Q123.09-16.6 121.94-18.1 120.79-19.6 118.49-19.6L118.49-19.6Q116.44-19.6 114.29-18.25 112.14-16.9 110.09-14.4L110.09-14.4 110.09-14.15 110.09-3.95 114.39-3.95 114.39 0 100.89 0 100.89-3.95 105.19-3.95 105.19-14Q105.19-16.6 103.99-18.1 102.79-19.6 100.49-19.6L100.49-19.6Q98.44-19.6 96.29-18.23 94.14-16.85 92.04-14.3L92.04-14.3 92.04-3.95 96.39-3.95 96.39 0 81.84 0 81.84-3.95 87.14-3.95 87.14-19.6 81.84-19.6 81.84-23.55 92.04-23.55 92.04-18.4Q94.24-21.15 96.84-22.65 99.44-24.15 102.24-24.15L102.24-24.15Q105.09-24.15 107.02-22.58 108.94-21 109.69-17.95L109.69-17.95Q111.94-20.9 114.62-22.53 117.29-24.15 120.19-24.15L120.19-24.15Q123.84-24.15 125.92-21.58 127.99-19 127.99-14.15L127.99-14.15 127.99-3.95ZM153.44-24.2Q156.39-24.2 158.89-22.65 161.39-21.1 162.89-18.32 164.39-15.55 164.39-12L164.39-12Q164.39-8.35 162.77-5.45 161.14-2.55 158.34-0.93 155.54 0.7 152.14 0.7L152.14 0.7Q147.69 0.7 143.94-2.7L143.94-2.7 143.94 6.95 149.39 6.95 149.39 10.9 133.89 10.9 133.89 6.95 139.14 6.95 139.14-19.6 133.89-19.6 133.89-23.55 143.94-23.55 143.94-19Q145.89-21.4 148.39-22.8 150.89-24.2 153.44-24.2L153.44-24.2ZM151.09-3.5Q153.44-3.5 155.32-4.58 157.19-5.65 158.24-7.6 159.29-9.55 159.29-12.05L159.29-12.05Q159.29-15.6 157.27-17.82 155.24-20.05 152.09-20.05L152.09-20.05Q149.94-20.05 147.84-18.75 145.74-17.45 143.94-15.15L143.94-15.15 143.94-6.4Q147.54-3.5 151.09-3.5L151.09-3.5ZM189.29-24.15L191.39-24.15 191.39-14.15 187.04-14.15 187.04-19.3Q185.09-19.3 182.79-17.85 180.49-16.4 178.04-13.75L178.04-13.75 178.04-3.95 183.39-3.95 183.39 0 167.84 0 167.84-3.95 173.14-3.95 173.14-19.6 167.84-19.6 167.84-23.55 178.04-23.55 178.04-17.65Q180.69-20.7 183.56-22.43 186.44-24.15 189.29-24.15L189.29-24.15ZM217.09-6.7L219.19-3.5Q214.39 0.7 208.24 0.7L208.24 0.7Q204.89 0.7 201.89-0.7 198.89-2.1 197.04-4.8 195.19-7.5 195.19-11.2L195.19-11.2Q195.19-15.15 197.09-18.1 198.99-21.05 202.04-22.63 205.09-24.2 208.44-24.2L208.44-24.2Q211.39-24.2 213.71-23.25 216.04-22.3 217.36-20.6 218.69-18.9 218.69-16.7L218.69-16.7Q218.69-13.4 215.86-11.58 213.04-9.75 209.09-9.75L209.09-9.75Q206.54-9.75 204.34-10.28 202.14-10.8 199.89-11.8L199.89-11.8 199.89-11.35Q199.89-9 201.01-7.2 202.14-5.4 204.04-4.45 205.94-3.5 208.19-3.5L208.19-3.5Q213.29-3.5 217.09-6.7L217.09-6.7ZM208.79-20.3Q206.09-20.3 203.76-18.75 201.44-17.2 200.44-14.55L200.44-14.55Q204.24-13.2 208.04-13.2L208.04-13.2Q210.54-13.2 212.16-14.13 213.79-15.05 213.79-16.7L213.79-16.7Q213.79-18.3 212.39-19.3 210.99-20.3 208.79-20.3L208.79-20.3ZM250.18-13.9Q254.78-12.65 257.26-10.78 259.73-8.9 259.73-5.75L259.73-5.75Q259.73-2.85 257.28-1.07 254.83 0.7 251.23 0.7L251.23 0.7Q248.73 0.7 246.31-0.18 243.88-1.05 241.98-2.6L241.98-2.6 241.98 0.05 238.18 0.05 238.18-7.6 240.33-7.8Q242.23-5.65 245.11-4.13 247.98-2.6 250.73-2.6L250.73-2.6Q252.58-2.6 253.63-3.3 254.68-4 254.68-5.3L254.68-5.3Q254.68-6.8 253.03-7.78 251.38-8.75 247.63-9.75L247.63-9.75Q243.13-10.95 240.71-12.78 238.28-14.6 238.28-17.55L238.28-17.55Q238.28-19.4 239.31-20.93 240.33-22.45 242.21-23.33 244.08-24.2 246.53-24.2L246.53-24.2Q248.93-24.2 251.11-23.4 253.28-22.6 254.88-21.15L254.88-21.15 254.88-23.55 258.63-23.55 258.63-15.95 256.43-15.7Q255.03-18.05 252.61-19.48 250.18-20.9 247.78-20.9L247.78-20.9Q245.83-20.9 244.58-20.13 243.33-19.35 243.33-18.1L243.33-18.1Q243.33-16.75 244.98-15.83 246.63-14.9 250.18-13.9L250.18-13.9ZM286.98-6.7L289.08-3.5Q284.28 0.7 278.13 0.7L278.13 0.7Q274.78 0.7 271.78-0.7 268.78-2.1 266.93-4.8 265.08-7.5 265.08-11.2L265.08-11.2Q265.08-15.15 266.98-18.1 268.88-21.05 271.93-22.63 274.98-24.2 278.33-24.2L278.33-24.2Q281.28-24.2 283.6-23.25 285.93-22.3 287.25-20.6 288.58-18.9 288.58-16.7L288.58-16.7Q288.58-13.4 285.75-11.58 282.93-9.75 278.98-9.75L278.98-9.75Q276.43-9.75 274.23-10.28 272.03-10.8 269.78-11.8L269.78-11.8 269.78-11.35Q269.78-9 270.9-7.2 272.03-5.4 273.93-4.45 275.83-3.5 278.08-3.5L278.08-3.5Q283.18-3.5 286.98-6.7L286.98-6.7ZM278.68-20.3Q275.98-20.3 273.65-18.75 271.33-17.2 270.33-14.55L270.33-14.55Q274.13-13.2 277.93-13.2L277.93-13.2Q280.43-13.2 282.05-14.13 283.68-15.05 283.68-16.7L283.68-16.7Q283.68-18.3 282.28-19.3 280.88-20.3 278.68-20.3L278.68-20.3ZM329.02-7L331.22-3.8Q326.57 0.7 320.37 0.7L320.37 0.7Q317.07 0.7 314.17-0.85 311.27-2.4 309.52-5.23 307.77-8.05 307.77-11.7L307.77-11.7Q307.77-15.15 309.37-18.03 310.97-20.9 313.67-22.55 316.37-24.2 319.52-24.2L319.52-24.2Q324.52-24.2 327.32-20.65L327.32-20.65 327.32-23.55 330.87-23.55 330.87-15.3 328.77-15.15Q326.32-20.15 320.97-20.15L320.97-20.15Q318.67-20.15 316.82-19.07 314.97-18 313.92-16.1 312.87-14.2 312.87-11.75L312.87-11.75Q312.87-9.35 314-7.45 315.12-5.55 316.95-4.53 318.77-3.5 320.87-3.5L320.87-3.5Q323.32-3.45 325.2-4.35 327.07-5.25 329.02-7L329.02-7ZM347.77 0.7Q344.32 0.7 341.32-0.85 338.32-2.4 336.55-5.25 334.77-8.1 334.77-11.75L334.77-11.75Q334.77-15.45 336.55-18.28 338.32-21.1 341.32-22.65 344.32-24.2 347.77-24.2L347.77-24.2Q351.17-24.2 354.15-22.65 357.12-21.1 358.92-18.25 360.72-15.4 360.72-11.75L360.72-11.75Q360.72-8.1 358.97-5.25 357.22-2.4 354.25-0.85 351.27 0.7 347.77 0.7L347.77 0.7ZM347.77-3.25Q350.02-3.25 351.82-4.3 353.62-5.35 354.65-7.28 355.67-9.2 355.67-11.75L355.67-11.75Q355.67-14.3 354.65-16.23 353.62-18.15 351.82-19.2 350.02-20.25 347.77-20.25L347.77-20.25Q344.32-20.25 342.1-17.93 339.87-15.6 339.87-11.75L339.87-11.75Q339.87-7.9 342.1-5.58 344.32-3.25 347.77-3.25L347.77-3.25ZM410.37-3.95L415.02-3.95 415.02 0 401.22 0 401.22-3.95 405.47-3.95 405.47-14Q405.47-16.6 404.32-18.1 403.17-19.6 400.87-19.6L400.87-19.6Q398.82-19.6 396.67-18.25 394.52-16.9 392.47-14.4L392.47-14.4 392.47-14.15 392.47-3.95 396.77-3.95 396.77 0 383.27 0 383.27-3.95 387.57-3.95 387.57-14Q387.57-16.6 386.37-18.1 385.17-19.6 382.87-19.6L382.87-19.6Q380.82-19.6 378.67-18.23 376.52-16.85 374.42-14.3L374.42-14.3 374.42-3.95 378.77-3.95 378.77 0 364.22 0 364.22-3.95 369.52-3.95 369.52-19.6 364.22-19.6 364.22-23.55 374.42-23.55 374.42-18.4Q376.62-21.15 379.22-22.65 381.82-24.15 384.62-24.15L384.62-24.15Q387.47-24.15 389.39-22.58 391.32-21 392.07-17.95L392.07-17.95Q394.32-20.9 396.99-22.53 399.67-24.15 402.57-24.15L402.57-24.15Q406.22-24.15 408.29-21.58 410.37-19 410.37-14.15L410.37-14.15 410.37-3.95ZM435.82-24.2Q438.77-24.2 441.27-22.65 443.77-21.1 445.27-18.32 446.77-15.55 446.77-12L446.77-12Q446.77-8.35 445.14-5.45 443.52-2.55 440.72-0.93 437.92 0.7 434.52 0.7L434.52 0.7Q430.07 0.7 426.32-2.7L426.32-2.7 426.32 6.95 431.77 6.95 431.77 10.9 416.27 10.9 416.27 6.95 421.52 6.95 421.52-19.6 416.27-19.6 416.27-23.55 426.32-23.55 426.32-19Q428.27-21.4 430.77-22.8 433.27-24.2 435.82-24.2L435.82-24.2ZM433.47-3.5Q435.82-3.5 437.69-4.58 439.57-5.65 440.62-7.6 441.67-9.55 441.67-12.05L441.67-12.05Q441.67-15.6 439.64-17.82 437.62-20.05 434.47-20.05L434.47-20.05Q432.32-20.05 430.22-18.75 428.12-17.45 426.32-15.15L426.32-15.15 426.32-6.4Q429.92-3.5 433.47-3.5L433.47-3.5ZM463.81 0.7Q460.36 0.7 457.36-0.85 454.36-2.4 452.59-5.25 450.81-8.1 450.81-11.75L450.81-11.75Q450.81-15.45 452.59-18.28 454.36-21.1 457.36-22.65 460.36-24.2 463.81-24.2L463.81-24.2Q467.21-24.2 470.19-22.65 473.16-21.1 474.96-18.25 476.76-15.4 476.76-11.75L476.76-11.75Q476.76-8.1 475.01-5.25 473.26-2.4 470.29-0.85 467.31 0.7 463.81 0.7L463.81 0.7ZM463.81-3.25Q466.06-3.25 467.86-4.3 469.66-5.35 470.69-7.28 471.71-9.2 471.71-11.75L471.71-11.75Q471.71-14.3 470.69-16.23 469.66-18.15 467.86-19.2 466.06-20.25 463.81-20.25L463.81-20.25Q460.36-20.25 458.14-17.93 455.91-15.6 455.91-11.75L455.91-11.75Q455.91-7.9 458.14-5.58 460.36-3.25 463.81-3.25L463.81-3.25ZM509.81-3.95L514.51-3.95 514.51 0 500.61 0 500.61-3.95 504.96-3.95 504.96-13.7Q504.96-16.45 503.59-18.03 502.21-19.6 499.66-19.6L499.66-19.6Q495.31-19.6 490.46-14.1L490.46-14.1 490.46-3.95 494.81-3.95 494.81 0 480.26 0 480.26-3.95 485.56-3.95 485.56-19.6 480.26-19.6 480.26-23.55 490.46-23.55 490.46-18Q493.26-21.1 495.84-22.63 498.41-24.15 501.36-24.15L501.36-24.15Q505.41-24.15 507.61-21.55 509.81-18.95 509.81-13.85L509.81-13.85 509.81-3.95ZM538.91-6.7L541.01-3.5Q536.21 0.7 530.06 0.7L530.06 0.7Q526.71 0.7 523.71-0.7 520.71-2.1 518.86-4.8 517.01-7.5 517.01-11.2L517.01-11.2Q517.01-15.15 518.91-18.1 520.81-21.05 523.86-22.63 526.91-24.2 530.26-24.2L530.26-24.2Q533.21-24.2 535.53-23.25 537.86-22.3 539.18-20.6 540.51-18.9 540.51-16.7L540.51-16.7Q540.51-13.4 537.68-11.58 534.86-9.75 530.91-9.75L530.91-9.75Q528.36-9.75 526.16-10.28 523.96-10.8 521.71-11.8L521.71-11.8 521.71-11.35Q521.71-9 522.83-7.2 523.96-5.4 525.86-4.45 527.76-3.5 530.01-3.5L530.01-3.5Q535.11-3.5 538.91-6.7L538.91-6.7ZM530.61-20.3Q527.91-20.3 525.58-18.75 523.26-17.2 522.26-14.55L522.26-14.55Q526.06-13.2 529.86-13.2L529.86-13.2Q532.36-13.2 533.98-14.13 535.61-15.05 535.61-16.7L535.61-16.7Q535.61-18.3 534.21-19.3 532.81-20.3 530.61-20.3L530.61-20.3ZM588.05-4.05L589.1-0.45Q588.4-0.05 587.4 0.23 586.4 0.5 585.3 0.5L585.3 0.5Q583.45 0.5 582.1-0.48 580.75-1.45 580.25-3.3L580.25-3.3Q578.25-1.5 576.03-0.4 573.8 0.7 571.1 0.7L571.1 0.7Q568.05 0.7 565.43-0.85 562.8-2.4 561.25-5.18 559.7-7.95 559.7-11.45L559.7-11.45Q559.7-15.1 561.33-18.03 562.95-20.95 565.75-22.58 568.55-24.2 571.95-24.2L571.95-24.2Q576.3-24.2 579.95-21L579.95-21 579.95-30.35 574.65-30.35 574.65-34.3 584.75-34.3 584.75-6.05Q584.75-3.65 586.4-3.65L586.4-3.65Q587.5-3.65 588.05-4.05L588.05-4.05ZM564.8-11.5Q564.8-7.9 566.83-5.7 568.85-3.5 572.1-3.5L572.1-3.5Q575.85-3.5 579.95-6.9L579.95-6.9 579.95-17.25Q576.45-20.05 573.05-20.05L573.05-20.05Q570.7-20.05 568.8-18.95 566.9-17.85 565.85-15.9 564.8-13.95 564.8-11.5L564.8-11.5ZM613.95-6.7L616.05-3.5Q611.25 0.7 605.1 0.7L605.1 0.7Q601.75 0.7 598.75-0.7 595.75-2.1 593.9-4.8 592.05-7.5 592.05-11.2L592.05-11.2Q592.05-15.15 593.95-18.1 595.85-21.05 598.9-22.63 601.95-24.2 605.3-24.2L605.3-24.2Q608.25-24.2 610.57-23.25 612.9-22.3 614.22-20.6 615.55-18.9 615.55-16.7L615.55-16.7Q615.55-13.4 612.72-11.58 609.9-9.75 605.95-9.75L605.95-9.75Q603.4-9.75 601.2-10.28 599-10.8 596.75-11.8L596.75-11.8 596.75-11.35Q596.75-9 597.87-7.2 599-5.4 600.9-4.45 602.8-3.5 605.05-3.5L605.05-3.5Q610.15-3.5 613.95-6.7L613.95-6.7ZM605.65-20.3Q602.95-20.3 600.62-18.75 598.3-17.2 597.3-14.55L597.3-14.55Q601.1-13.2 604.9-13.2L604.9-13.2Q607.4-13.2 609.02-14.13 610.65-15.05 610.65-16.7L610.65-16.7Q610.65-18.3 609.25-19.3 607.85-20.3 605.65-20.3L605.65-20.3ZM661.04-4.15L662.04-0.6Q660.39 0.4 658.19 0.4L658.19 0.4Q656.34 0.4 655.07-0.68 653.79-1.75 653.29-3.75L653.29-3.75Q648.29 0.7 643.39 0.7L643.39 0.7Q639.94 0.7 637.54-1.25 635.14-3.2 635.14-6.7L635.14-6.7Q635.14-9.1 636.49-10.88 637.84-12.65 640.12-13.58 642.39-14.5 645.04-14.5L645.04-14.5Q647.29-14.5 649.19-14.08 651.09-13.65 653.09-12.85L653.09-12.85 653.09-15.05Q653.09-17.6 651.39-18.8 649.69-20 646.94-20L646.94-20Q643.04-20 637.54-17.85L637.54-17.85 636.54-21.65Q642.44-24.15 647.54-24.15L647.54-24.15Q652.39-24.15 655.07-21.78 657.74-19.4 657.74-14.85L657.74-14.85 657.74-6.2Q657.74-3.75 659.49-3.75L659.49-3.75Q660.24-3.75 661.04-4.15L661.04-4.15ZM639.99-6.95Q639.99-5.25 641.34-4.33 642.69-3.4 644.64-3.4L644.64-3.4Q646.34-3.4 648.54-4.3 650.74-5.2 653.09-6.95L653.09-6.95 653.09-9.6Q649.69-10.8 645.89-10.9L645.89-10.9Q643.44-10.9 641.72-9.88 639.99-8.85 639.99-6.95L639.99-6.95ZM692.89-3.95L697.59-3.95 697.59 0 683.69 0 683.69-3.95 688.04-3.95 688.04-13.7Q688.04-16.6 686.67-18.2 685.29-19.8 682.69-19.8L682.69-19.8Q678.64-19.8 673.69-14.3L673.69-14.3 673.69-3.95 677.99-3.95 677.99 0 663.49 0 663.49-3.95 668.79-3.95 668.79-30.35 663.49-30.35 663.49-34.3 673.69-34.3 673.69-18.15Q676.44-21.15 679.02-22.65 681.59-24.15 684.64-24.15L684.64-24.15Q688.69-24.15 690.79-21.58 692.89-19 692.89-13.85L692.89-13.85 692.89-3.95ZM713.04 0.7Q709.59 0.7 706.59-0.85 703.59-2.4 701.81-5.25 700.04-8.1 700.04-11.75L700.04-11.75Q700.04-15.45 701.81-18.28 703.59-21.1 706.59-22.65 709.59-24.2 713.04-24.2L713.04-24.2Q716.44-24.2 719.41-22.65 722.39-21.1 724.19-18.25 725.99-15.4 725.99-11.75L725.99-11.75Q725.99-8.1 724.24-5.25 722.49-2.4 719.51-0.85 716.54 0.7 713.04 0.7L713.04 0.7ZM713.04-3.25Q715.29-3.25 717.09-4.3 718.89-5.35 719.91-7.28 720.94-9.2 720.94-11.75L720.94-11.75Q720.94-14.3 719.91-16.23 718.89-18.15 717.09-19.2 715.29-20.25 713.04-20.25L713.04-20.25Q709.59-20.25 707.36-17.93 705.14-15.6 705.14-11.75L705.14-11.75Q705.14-7.9 707.36-5.58 709.59-3.25 713.04-3.25L713.04-3.25ZM750.94-24.15L753.04-24.15 753.04-14.15 748.69-14.15 748.69-19.3Q746.74-19.3 744.44-17.85 742.14-16.4 739.69-13.75L739.69-13.75 739.69-3.95 745.04-3.95 745.04 0 729.49 0 729.49-3.95 734.79-3.95 734.79-19.6 729.49-19.6 729.49-23.55 739.69-23.55 739.69-17.65Q742.34-20.7 745.21-22.43 748.09-24.15 750.94-24.15L750.94-24.15ZM783.33-4.15L784.33-0.6Q782.68 0.4 780.48 0.4L780.48 0.4Q778.63 0.4 777.36-0.68 776.08-1.75 775.58-3.75L775.58-3.75Q770.58 0.7 765.68 0.7L765.68 0.7Q762.23 0.7 759.83-1.25 757.43-3.2 757.43-6.7L757.43-6.7Q757.43-9.1 758.78-10.88 760.13-12.65 762.41-13.58 764.68-14.5 767.33-14.5L767.33-14.5Q769.58-14.5 771.48-14.08 773.38-13.65 775.38-12.85L775.38-12.85 775.38-15.05Q775.38-17.6 773.68-18.8 771.98-20 769.23-20L769.23-20Q765.33-20 759.83-17.85L759.83-17.85 758.83-21.65Q764.73-24.15 769.83-24.15L769.83-24.15Q774.68-24.15 777.36-21.78 780.03-19.4 780.03-14.85L780.03-14.85 780.03-6.2Q780.03-3.75 781.78-3.75L781.78-3.75Q782.53-3.75 783.33-4.15L783.33-4.15ZM762.28-6.95Q762.28-5.25 763.63-4.33 764.98-3.4 766.93-3.4L766.93-3.4Q768.63-3.4 770.83-4.3 773.03-5.2 775.38-6.95L775.38-6.95 775.38-9.6Q771.98-10.8 768.18-10.9L768.18-10.9Q765.73-10.9 764.01-9.88 762.28-8.85 762.28-6.95L762.28-6.95ZM799.08-13.9Q803.68-12.65 806.16-10.78 808.63-8.9 808.63-5.75L808.63-5.75Q808.63-2.85 806.18-1.07 803.73 0.7 800.13 0.7L800.13 0.7Q797.63 0.7 795.21-0.18 792.78-1.05 790.88-2.6L790.88-2.6 790.88 0.05 787.08 0.05 787.08-7.6 789.23-7.8Q791.13-5.65 794.01-4.13 796.88-2.6 799.63-2.6L799.63-2.6Q801.48-2.6 802.53-3.3 803.58-4 803.58-5.3L803.58-5.3Q803.58-6.8 801.93-7.78 800.28-8.75 796.53-9.75L796.53-9.75Q792.03-10.95 789.61-12.78 787.18-14.6 787.18-17.55L787.18-17.55Q787.18-19.4 788.21-20.93 789.23-22.45 791.11-23.33 792.98-24.2 795.43-24.2L795.43-24.2Q797.83-24.2 800.01-23.4 802.18-22.6 803.78-21.15L803.78-21.15 803.78-23.55 807.53-23.55 807.53-15.95 805.33-15.7Q803.93-18.05 801.51-19.48 799.08-20.9 796.68-20.9L796.68-20.9Q794.73-20.9 793.48-20.13 792.23-19.35 792.23-18.1L792.23-18.1Q792.23-16.75 793.88-15.83 795.53-14.9 799.08-13.9L799.08-13.9Z" opacity="1" transform="matrix(1,0,0,1,0,0)" fill="#000000" class="slogan-text-1" data-fill-palette-color="secondary" id="text-1"></path></svg></g></svg></g></svg></g></svg></g><g transform="matrix(1,0,0,1,122.8992062218255,0)"><svg viewBox="0 0 149.721587556349 121.9958794993072" height="121.9958794993072" width="149.721587556349"><g><svg xmlns="http://www.w3.org/2000/svg" xmlns:xlink="http://www.w3.org/1999/xlink" version="1.1" x="0" y="0" viewBox="1.5 7.518 65.001 52.964" style="enable-background:new 0 0 68 68;" xml:space="preserve" height="121.9958794993072" width="149.721587556349" class="icon-icon-0" data-fill-palette-color="accent" id="icon-0"><g fill="#8bd8bc" data-fill-palette-color="accent"><g fill="#8bd8bc" data-fill-palette-color="accent"><path d="M1.5 45.84c0 1.167 0.95 2.117 2.117 2.117h23.226v6.648h-9.518c-0.482 0-0.875 0.393-0.875 0.875s0.393 0.875 0.875 0.875h20.786c0.482 0 0.875-0.393 0.875-0.875s-0.393-0.875-0.875-0.875h-9.518v-6.648h15.173v-5.186H1.5V45.84z" fill="#000000" data-fill-palette-color="accent"></path><path d="M65.875 19.535H54.687h-9.545c-0.345 0-0.625 0.28-0.625 0.625v21.861 6.686 11.15c0 0.345 0.28 0.625 0.625 0.625h20.734c0.345 0 0.625-0.28 0.625-0.625V20.16C66.5 19.815 66.22 19.535 65.875 19.535zM53.275 20.704h3.445c0.207 0 0.375 0.168 0.375 0.375s-0.168 0.375-0.375 0.375h-3.445c-0.207 0-0.375-0.168-0.375-0.375S53.068 20.704 53.275 20.704zM58.099 58.662h-4.823c-0.207 0-0.375-0.168-0.375-0.375s0.168-0.375 0.375-0.375h4.823c0.207 0 0.375 0.168 0.375 0.375S58.306 58.662 58.099 58.662zM64.594 55.274c0 0.758-0.617 1.375-1.375 1.375H47.797c-0.758 0-1.375-0.617-1.375-1.375V24.743c0-0.758 0.617-1.375 1.375-1.375h15.421c0.758 0 1.375 0.617 1.375 1.375V55.274z" fill="#000000" data-fill-palette-color="accent"></path><path d="M53.937 18.785v-9.15c0-1.167-0.95-2.117-2.117-2.117H3.617C2.45 7.518 1.5 8.468 1.5 9.635v32.387h42.266V20.16c0-0.758 0.617-1.375 1.375-1.375H53.937zM11.732 13.758H30.49v0.75H11.732V13.758zM11.732 21.457h5.928v0.75h-5.928V21.457zM11.732 29.155h16.192v0.75H11.732V29.155zM9.493 37.501l-3.151 1.383v-1.128l1.466-0.623-1.466-0.624v-1.128l3.151 1.383V37.501zM9.493 29.803l-3.151 1.383v-1.128l1.466-0.624L6.342 28.81v-1.127l3.151 1.382V29.803zM9.493 22.104l-3.151 1.383v-1.128l1.466-0.624-1.466-0.624v-1.127l3.151 1.382V22.104zM9.493 14.406l-3.151 1.383v-1.128l1.466-0.624-1.466-0.624v-1.127l3.151 1.382V14.406zM36.905 37.604H11.732v-0.75h25.173V37.604zM43.321 29.905H30.978v-0.75h12.343V29.905zM43.321 22.207H20.713v-0.75h22.607V22.207zM43.321 14.508h-9.777v-0.75h9.777V14.508z" fill="#000000" data-fill-palette-color="accent"></path><path d="M63.219 24.118H47.797c-0.345 0-0.625 0.28-0.625 0.625v30.531c0 0.345 0.28 0.625 0.625 0.625h15.421c0.345 0 0.625-0.28 0.625-0.625V24.743C63.844 24.398 63.563 24.118 63.219 24.118zM53.581 39.637l-0.281 0.828-3.103-1.243v-0.846l3.103-1.243 0.281 0.828L51.315 38.8 53.581 39.637zM54.842 42.107h-1.089l2.41-6.621h1.104L54.842 42.107zM60.825 39.222l-3.102 1.243-0.282-0.828 2.266-0.838-2.266-0.838 0.282-0.828 3.102 1.243V39.222z" fill="#000000" data-fill-palette-color="accent"></path></g></g></svg></g></svg></g><g></g></svg></g></svg></g></svg></g><defs></defs></svg><rect width="395.52" height="247.2" fill="none" stroke="none" visibility="hidden"></rect></g></svg></g></svg>